<svg id="Layer_1" data-name="Layer 1" xmlns="http://www.w3.org/2000/svg" viewBox="0 0 512 512"><defs><style>.cls-1{fill:#ffb4b5;}.cls-2{fill:#c68197;}</style></defs><title>flower_1</title><circle class="cls-1" cx="256" cy="256" r="256"/><path class="cls-2" d="M333,334.66l1.09.81a2.58,2.58,0,0,1-.53-.68Z"/><path class="cls-2" d="M327.33,334a105.21,105.21,0,0,1-7.84,18c-4.78,8.85-10,17.44-10,27.8a3.32,3.32,0,0,1-4.17,3.18,105.05,105.05,0,0,1-37.13-22l-.87,1.52a1.06,1.06,0,0,1-.08,1.08c-1,1.54-2.18,3.15-3.36,4.82q-5.46,9.19-11.41,18.1c-4.5,9.52-5.75,19.42,2.91,28.1,15,15,36.09,8,51.73-2.07a87.22,87.22,0,0,0,31.69-35.7c3.59-7.65,7.26-17.68,4.94-26.22C341.36,341.93,332.51,340.27,327.33,334Z"/><path class="cls-2" d="M304.53,273.45a102,102,0,0,1-12.45.76A61.14,61.14,0,0,0,304.53,273.45Z"/><path class="cls-2" d="M266.79,256.45a29.32,29.32,0,0,0,6.53,10c15.76,10.35,54.91,2.76,69.51.95a46.84,46.84,0,0,0-8.65-2.89c-12.69-2.9-23.53.92-35.95,2.71-12.95,1.87-27.42-5.43-31.14-17.71A20.76,20.76,0,0,0,266.79,256.45Z"/><path class="cls-2" d="M350.5,271.68a51.7,51.7,0,0,0-6.37-3.64c-3,.58-6.08,1.08-9.14,1.53A59.48,59.48,0,0,1,350.5,271.68Z"/><path class="cls-2" d="M335.62,336.12a2.66,2.66,0,0,1-1-.3c5.26,3.7,10.7,6.26,12.77,13a63,63,0,0,0-2.24-12.24C341.86,336.53,338.68,336.39,335.62,336.12Z"/><path class="cls-2" d="M301.43,418.65c-17.14,8.5-38,12.34-50.8-5.4a24,24,0,0,1-4.14-18.14q-1.41,2-2.84,3.91a1.25,1.25,0,0,1,.4,1.14c-2,18.18,13.11,29.14,30.36,28.11,14.41-.86,28.75-7.09,40.55-15.2,16.53-11.36,28.28-28.79,31.64-47.92a82.45,82.45,0,0,1-4.35,11.08A89,89,0,0,1,301.43,418.65Z"/><path class="cls-2" d="M232.87,214.12c-2.3-2.69-4.58-5.4-6.81-8.17-2.4-3-5.07-6.09-7.73-9.33A154.52,154.52,0,0,0,232.87,214.12Z"/><path class="cls-2" d="M268,224.43c1.82-2.82,3.85-5.53,5.83-8.19,6.93-9.33,13.7-18.79,20.63-28.12,13.3-17.91,30.63-33.49,41.13-53.29.44-.82,1.58-.1,1.22.71-8.37,19.12-23.23,33.93-35.86,50.22-9.9,12.77-20.49,25.43-28.46,39.5,13.38-13.64,34.24-20.27,52.72-15.4a55.63,55.63,0,0,1,13.4,5.51c9-8.22,17.34-15,23.85-25.69a84.05,84.05,0,0,0,11.74-33.19c1.58-12.89-1.1-25.65-1.32-38.53a125.17,125.17,0,0,1,5.05-36.08c-34.88,8.1-77.09,19.86-94.84,53.7q-.34,6.43-.88,12.85A354.76,354.76,0,0,1,275,195.89C272.94,205.32,269.92,214.83,268,224.43Z"/><path class="cls-2" d="M209,161.1c-.43,7.21,2.83,13.42,6.72,19.25,11.06,16.54,23.18,32.75,35.73,48.41-4.7-14.2-5.81-30.69-6.41-43.85-1.22-26.7,1.06-53.67,2.16-80.34,0-1.13,1.79-1.13,1.75,0-.84,24.74-2.59,49.66-1.66,74.41.47,12.48,1.78,25,5.27,37a123.61,123.61,0,0,0,7.05,17.55c.69-9.47,3.05-18.66,5.47-28.23a419.92,419.92,0,0,0,9.3-48.12,356.54,356.54,0,0,0,3.18-41.07q.15-10.29-.24-20.59c-.28-7.25.38-18.31-10.25-16.67-8.39,1.3-14.42,6.83-22.81,1.94-6.58-3.84-12.56-5.05-18.72.64-5.53,5.11-7,12.62-7.58,19.82-1,12.85-.75,25.37-3.56,38C212.79,146.49,209.4,153.75,209,161.1Z"/><path class="cls-2" d="M343.82,218.73a51.33,51.33,0,0,1,13.89,15.14c9.41,15.86,8.38,35.12,15.47,51.8,1.4,3.29-2.34,6.86-5.21,4-10.71-10.55-24.32-14.93-39.19-13.39-1.15.12-2.29.27-3.44.43h0c.34,1.2.8,2.4,1,3.59v0c6.8,14.24,6.13,32.82,2.59,47.79-.13.55-.28,1.09-.42,1.63,12.28-.62,24.54.37,36.9-1.19,4.68-.59,9.52-1.13,14.37-1.82,9.36-3,17.94-7.46,24.4-13.9,9.53-9.5,12.11-21.17,9.8-34.13-1.73-9.68-3.53-18.31-1.87-28.17,2.19-13,6.23-24.86,2.52-38.09-2.81-10-7.67-19.36-9.07-29.79-1.47-11-.14-22.2-3.47-33a37.35,37.35,0,0,0-13.22-18.38,20.32,20.32,0,0,0-8.08-1.44,2.8,2.8,0,0,1-1.55-.4c1.25,12.09,2.38,23.78,0,35.89C375.34,185.2,362.44,208.68,343.82,218.73Z"/><path class="cls-2" d="M283.49,125.48c7.49-12.76,23.42-23,34.66-29.07a164.81,164.81,0,0,1,24.22-10.46c-3.19-3.22-6.36-6.1-11.57-5.73-3.9.27-7.33,2.6-10.84,4.11-4.19,1.8-8.56,3-13,1.46a9.6,9.6,0,0,1-4.8-3.34c-.67-.91-1.12-4-1.77-4.6-4.13-3.61-13.22,7.75-17.23,11.72.29,3.73.22,7.44.32,10.4Q283.86,112.7,283.49,125.48Z"/><path class="cls-2" d="M180.83,321.43c15.76-6.16,30.35-15.48,40.93-28.87,8.81-11.14,13.9-23.5,18.48-36.48-3.09,1.87-6.81,3-10.14,4.18-9,3.25-18.5,5.56-27.2,9.55-.31.14-.67-.24-.38-.5,5.41-4.82,12-7.83,18.75-10.62-5.43,1.25-10.85,2.59-16.21,4.11A180.71,180.71,0,0,0,164,280.26c-.76.43-1.32-.64-.66-1.14a141.36,141.36,0,0,1,37.78-20c6.08-2.19,12.26-4,18.5-5.71A127.14,127.14,0,0,1,176.37,246a93.64,93.64,0,0,1-21.49-11.3c-21.53-1.17-40.69,21.34-50.64,38.16A79.16,79.16,0,0,0,97,289.86a1.82,1.82,0,0,1-.4,1.26c-3.59,12-5.78,24.43-11.29,35.67,16.15.08,31.7,6.23,47.92,6C149,332.58,166.25,327.13,180.83,321.43Zm6.52-44.55a5.51,5.51,0,0,1,4.62-1.47c.82.13.62,1.5-.19,1.44a6.81,6.81,0,0,0-3.93.69C187.45,277.76,187,277.2,187.35,276.88ZM141.45,293c1.53-2.6,4.13-4.94,7.22-5.25a.44.44,0,0,1,.22.82c-2.65,1.18-5,2.41-6.6,4.92A.49.49,0,0,1,141.45,293Z"/><path class="cls-2" d="M91.68,284.84a90,90,0,0,1,15-26.82c7.13-8.87,18.76-21.8,31.25-26.78a235.49,235.49,0,0,1-24.4-9.29c-.8-.35-.17-1.41.54-1.29,10,1.64,20.84,3.74,30.52,6.92a2.59,2.59,0,0,1,1.72,1.65c.5,0,1,0,1.51,0-10-8.52-18.41-19-25.53-30.78-4.22-7-10.16-16.12-14.5-25.77a22.42,22.42,0,0,1-3.58,7.92c-4,5.63-12.51,8.68-11.15,16.94.92,5.55,5.52,10.13,6.77,15.7,2.88,12.83-8.42,24.16-13,35.11-3.37,8-5.15,16.85-2.57,25.35A24.41,24.41,0,0,0,91.68,284.84Z"/><path class="cls-2" d="M209.24,127.27q.45-3.25.73-6.53c1.1-13.11-1.23-28.74,6.94-40.09a20,20,0,0,0-6.73-3.33c-4.63-1.14-9.69-.4-14.25.64a34.94,34.94,0,0,0-11,4.18c-4.2,2.69-4.75,6.06-6.77,10.12a16.87,16.87,0,0,1-8.3,7.56C185.85,103.78,204.24,112.33,209.24,127.27Z"/><path class="cls-2" d="M176.45,332.35c-12.52,4.58-24.69,7.73-35,17.11-10.65,9.66-15.26,21.42-21.33,34a.39.39,0,0,1-.73-.2c1-14,11.05-27.25,20.65-36.74a98,98,0,0,1,12.56-10.6c-4.7.86-9.4,1.54-14.08,2-11.36,1.06-22.42-1.34-33.53-3.16-.36,4.79-2,9.81-2.14,14.59A86.21,86.21,0,0,0,119.1,403c4.3-5,11-6.35,17.31-8.45,11.65-3.87,20.49-10.9,30.81-17C165.41,362.56,168.38,345.14,176.45,332.35Z"/><path class="cls-2" d="M102.43,144.37a18.75,18.75,0,0,0-.29,7.28,26.87,26.87,0,0,1,2.78-13.45A20.87,20.87,0,0,0,102.43,144.37Z"/><path class="cls-2" d="M178,240.06a121.76,121.76,0,0,0,42.62,7.05,37.7,37.7,0,0,1-13.1-4.74.49.49,0,0,1,.38-.89c10,1.62,18.84,3.07,28.92,1.49,1.45-.23,2.9-.53,4.36-.85l-3.1-.58a88.25,88.25,0,0,1-22.87-7c-.85-.41-.18-1.49.58-1.38,7.77,1.09,15.43,2.8,23.2,3.89l1.27.15c-2.72-1.31-5.37-2.64-7.91-3.81-8.74-4-17.58-8.29-25.48-13.84-14.07-9.86-21.9-23.42-28.11-39.08-.24-.62.74-.87,1-.27,3.75,9.16,7.59,18,14.45,25.32a85,85,0,0,0,19.4,14.91c8.12,4.72,16.79,8,25.61,11.14,1.38.49,2.81,1,4.27,1.41-12.33-11.94-24.42-24.41-33.2-38.8-5.51-9-9.37-19.18-9.76-29.84-.49-13.38,5.49-26.51.69-39.62a2.41,2.41,0,0,1-.14-1.16c-6.28-7.36-15.35-11.95-25.07-15.24-14-4.74-35-10-45,4.85-3,4.43-2.49,10.1-5.86,14.32-3.92,4.91-10.44,6.38-13.81,12-8.58,14.17,2.21,31.19,9,43.63C133.94,207.92,150.46,229.93,178,240.06Zm27.67-13.43c1.59.69,3.7,1.32,4.82,2.72a.71.71,0,0,1-.69,1.18c-1.77-.25-3.39-1.75-4.79-2.76A.66.66,0,0,1,205.66,226.63Zm-6.16,9.23a.88.88,0,0,1-.68,1.6,4.38,4.38,0,0,1-2.75-1.88c-.83-1.08,1.06-2.23,1.85-1.08A5.21,5.21,0,0,0,199.5,235.86Zm-4.61-17.49c1-.3,2,.64,2.48,1.42a.52.52,0,0,1-.58.75c-.88-.33-2-1-1.94-2.12A.05.05,0,0,1,194.88,218.37Z"/><path class="cls-2" d="M248,251.18a105.48,105.48,0,0,1-3.52,13.22c-1.63,8.25-3,16.47-2.69,25.21A94.26,94.26,0,0,0,252.25,330a97.08,97.08,0,0,0,51,45.17c1.88-14.53,11.81-26.28,16.74-40A81.91,81.91,0,0,0,324.73,309c.13-7.67-1.31-14.92-2.6-22.31-2-2-3-5.73-3.07-8.87-9.87,1.82-19.71,4.19-29.77,3a36.58,36.58,0,0,1-18.15-7.66q2.87,8,5.74,16.09c5.87,16.37,11.38,33,12.81,50.4.07.82-1.32,1-1.44.19-2.58-18.53-9.32-35.62-17.3-52.45-3.83-8.08-7.82-16.05-11.3-24.29-1.19-2.81-2.52-5.8-3.68-8.86-.07,1.19-.1,2.39,0,3.6a108.37,108.37,0,0,0,2.35,16.26c1.9,9.57,3.62,18.84,2.72,28.64a.54.54,0,0,1-1.07,0c-1.41-12.22-6-23.64-8.36-35.66-1-5-1.93-10.78-1.59-16.25Zm14,60.18a1.24,1.24,0,0,1,1.52.5,6.89,6.89,0,0,1,1.17,2.34,24.55,24.55,0,0,0,.94,2.62.66.66,0,0,1-1.14.66,28.8,28.8,0,0,0-1.82-2.31,7.45,7.45,0,0,1-1.38-2.38A1.2,1.2,0,0,1,262,311.35Z"/><path class="cls-2" d="M406.9,178.23c1.36,13.68,8.82,25.22,11.36,38.55,2.34,12.28-1.91,23.69-3.24,35.78-1.51,13.71,5.18,26.63,3.48,40.23-1.24,9.88-6.88,18.64-14.14,25.25a54.39,54.39,0,0,1-6.23,4.84c1.65-.51,3.27-1.07,4.86-1.7a39,39,0,0,0,23.1-25.66c3.66-12.28-1.65-21.58-3.65-33.36-1.87-11,1.12-21.48,2.82-32.24,1.15-7.26,1.91-14.52.29-21.78-1.43-6.43-4.56-12.22-7.48-18.06-5.2-10.39-7.79-21-10.83-32.11-2-7.26-5.16-15.35-10.36-21a47.83,47.83,0,0,1,5.1,8C407.24,155.5,405.77,166.92,406.9,178.23Z"/><path class="cls-2" d="M257.33,371.51q4.15-6.51,8-13.26a99.56,99.56,0,0,1-19-26.07,109.51,109.51,0,0,1-10.5-36.1c-1,2.64-2.07,5.22-3.07,7.7C229,313.23,224.42,322.38,221,332c-7.28,20.25-9.11,41.8-9.92,63.16a.29.29,0,0,1-.58,0,202.43,202.43,0,0,1,4.3-60.51c2.4-10.43,6.47-20.19,10.44-30.09,1.34-3.35,2.4-6.87,3.44-10.41A100,100,0,0,1,188,325.38c-.78.33-1.58.62-2.37.94-10.42,18.57-17.72,41.55-9.79,62.46,4.28,11.28,12.72,20.94,20.54,29.91,5.86,6.72,12,13.19,18.5,19.33,1.74-12.6,9.82-23,17.88-32.84,7.13-8.67,13.82-17.56,20-26.78A79.16,79.16,0,0,1,257.33,371.51Z"/><path class="cls-2" d="M356.86,247.85c-4.53-13.88-14.34-24.78-28.06-30.09a46.79,46.79,0,0,0-38.5,2c-10.12,5.25-16.89,13.17-21.94,22.7,2.45,10.57,8.91,19.92,20.33,22.21,10.58,2.13,21.3-3.56,31.9-4a62.47,62.47,0,0,1,42.75,14.85C361.2,266.32,359.81,256.91,356.86,247.85Z"/></svg>